# xmcd
#
# Track frame offsets: 
#        180
#        9312
#        24954
#        51705
#        70947
#        85457
#        104570
#        116400
#        128972
#        145892
#        162664
#        174683
#        194016
#        204114
#        220209
#        230501
#        243160
#        261269
#
# Disc length: 3761 seconds
#
# Revision: 0
# Processed by: cddbd v1.4PL0 Copyright (c) Steve Scherf et al.
# Submitted via: ExactAudioCopy v0.90b4
#
DISCID=0c0eaf12
DTITLE=Various Artist - Used To Be - Blues From The Pacific Delta for
DTITLE=Bill Monroe
DYEAR=1997
DGENRE=Bluegrass
TTITLE0=Beth Basile and The Crackpots - Used To Be
TTITLE1=Lisa Miller - Trailer Park Honey
TTITLE2=Jim Boyer - 3 Sheets to the Wind
TTITLE3=Old Jack Bloom - Self Abuse
TTITLE4=Lynn Connover - Rag-tag Devil
TTITLE5=Fernando - Edgar Casey Blues
TTITLE6=Dickel Brothers - Nine Pound Hammer
TTITLE7=David "Kid" Siegel - Klickitat County Blues
TTITLE8=Kevin Richey - Lamentations
TTITLE9=LynnAnn Hyde - Hands Off
TTITLE10=Pete Krebs - Shady Grove
TTITLE11=Richmond Fontaine - Blackout
TTITLE12=Sunset Vally - Drunk
TTITLE13=Miss Becky Kapell - Jolene
TTITLE14=Capitol Hillbillies - Get My Way
TTITLE15=Belmot Street Octet - I Have Seen It Worse
TTITLE16=Golden Delicious - Little Sadie
TTITLE17=Prarire Dogs - Hussar's Dance
EXTD=
EXTT0=
EXTT1=
EXTT2=
EXTT3=
EXTT4=
EXTT5=
EXTT6=
EXTT7=
EXTT8=
EXTT9=
EXTT10=
EXTT11=
EXTT12=
EXTT13=
EXTT14=
EXTT15=
EXTT16=
EXTT17=
PLAYORDER=
